<svg width="110" height="62" viewBox="0 0 110 62" fill="none" xmlns="http://www.w3.org/2000/svg">
<g opacity="0.7" clip-path="url(#clip0_552_640)">
<path d="M65.2369 0.225937C65.0343 0.770844 64.278 1.68789 63.2786 2.63151C61.3744 4.41243 59.2676 5.30289 55.2025 6.04716C53.5549 6.35284 49.4898 6.35284 46.5592 6.06045C43.9392 5.79464 41.1706 5.47567 40.8195 5.40921C40.6709 5.36934 40.1577 5.30289 39.6715 5.24973C39.1853 5.20986 38.2805 5.07695 37.6457 4.97063C37.011 4.86431 36.2277 4.78456 35.8901 4.78456C35.5524 4.78456 35.0933 4.7314 34.8502 4.66495C34.6071 4.5985 33.8508 4.50546 33.162 4.46559C32.4732 4.41243 31.6089 4.30611 31.2308 4.22636C30.2854 4.00043 21.7771 4.00043 20.7642 4.21307C20.3591 4.30611 19.6568 4.43901 19.2111 4.50546C18.4413 4.62508 17.4284 4.82444 16.7397 4.98392C16.5641 5.02379 16.4561 5.10353 16.4966 5.16999C16.5371 5.22315 16.429 5.24973 16.267 5.22315C16.0104 5.16999 13.9846 5.74148 13.1338 6.10032C11.8913 6.61864 9.29829 7.9344 8.59602 8.38628C5.53033 10.3666 3.08589 13.2639 2.05949 16.1479C1.60031 17.4105 1.43825 19.63 1.72186 20.8527C2.24857 23.2051 4.1393 24.9861 6.66477 25.5443C8.37993 25.9164 10.6893 25.531 12.526 24.5608C13.1878 24.2152 14.4978 23.2051 15.0515 22.6071C16.4155 21.1318 17.1988 19.2047 17.1313 17.477L17.1178 17.0782L16.9422 17.4105C16.8477 17.5966 16.6856 18.0086 16.5911 18.3408C15.5782 21.7299 12.4855 24.4146 8.94715 24.9861C7.52911 25.212 5.63838 24.6937 4.34187 23.7235C3.74764 23.2716 3.13991 22.328 2.78877 21.3046C2.54568 20.5869 2.51867 20.2281 2.55919 19.0984C2.62671 17.6231 2.80228 17.0118 3.61259 15.3505C4.61198 13.3037 7.16446 10.8583 9.77097 9.43623C11.0135 8.75841 12.9852 7.9344 13.8766 7.72176C14.1332 7.6553 14.8084 7.48252 15.3621 7.33633C15.9158 7.19014 16.6451 7.03065 16.9828 6.97749C17.3204 6.93762 17.7796 6.84459 17.9956 6.77813C18.2252 6.71168 18.914 6.63194 19.5487 6.59206C20.1835 6.5389 21.4935 6.44587 22.4524 6.36613C23.9515 6.24651 25.0049 6.2598 26.7065 6.44587C26.8956 6.47245 27.6249 6.52561 28.3271 6.57877C29.0294 6.63194 30.0828 6.75155 30.677 6.85788C31.2578 6.9642 31.9195 7.04394 32.1626 7.04394C32.5543 7.04394 32.5138 7.08381 31.7305 7.49582C30.569 8.12047 30.0288 8.53247 29.0294 9.54255C27.6654 10.9248 26.8011 12.0412 25.7341 13.8221C24.3161 16.1878 22.3038 20.2414 20.7642 23.8564C19.7918 26.1423 17.7661 30.6478 17.1448 31.8971C13.62 39.0075 9.852 42.2238 5.77343 41.6124C5.1792 41.5327 4.42291 41.3333 4.07177 41.1871C3.23445 40.815 2.46465 40.0043 2.19454 39.1936C1.91093 38.3563 1.91093 36.5886 2.20805 35.7248C2.3296 35.3659 2.39712 35.0337 2.35661 35.0071C2.18104 34.8343 1.15464 35.2729 0.627939 35.738C0.0472146 36.2431 0.0337093 36.2564 -0.00680631 37.2399C-0.0878376 38.8879 0.276803 39.8049 1.47877 40.9479C2.61321 42.0111 4.666 42.6092 6.77281 42.4896C10.8244 42.2637 14.8084 40.0442 17.631 36.4424C19.9809 33.4388 21.3855 30.5946 24.2756 22.926C24.4376 22.4875 24.6537 21.9425 24.7483 21.7299C24.8428 21.504 25.3695 20.2547 25.8962 18.9389C27.5438 14.9252 28.8538 12.4 30.2449 10.526C31.0822 9.39635 31.6629 8.82486 32.7028 8.06731C33.5942 7.41607 33.6617 7.38949 34.4315 7.41607C34.8637 7.42936 35.3634 7.50911 35.5524 7.57556C35.7415 7.64201 36.2682 7.73505 36.7274 7.78821C37.2001 7.82808 37.6187 7.89453 37.6592 7.92111C37.8078 8.00085 40.5899 8.38628 42.9128 8.6388C45.4518 8.9179 50.8538 8.93119 52.0288 8.66538C52.4069 8.57235 53.2848 8.38628 54.0006 8.24008C54.7163 8.09389 55.5672 7.86795 55.8913 7.73505C56.2289 7.58885 56.7016 7.42936 56.9582 7.3762C57.2148 7.32304 57.5119 7.23001 57.6335 7.17685C57.7415 7.12368 58.0521 6.99078 58.3087 6.88446C60.5911 5.91425 61.9821 5.05037 63.2111 3.84094C63.6298 3.42894 63.9809 3.04351 63.9809 2.99035C63.9809 2.93719 64.116 2.79099 64.2915 2.65809C64.5751 2.43215 65.3044 1.04994 65.534 0.292389C65.6421 -0.0531654 65.372 -0.119617 65.2369 0.225937Z" fill="white"/>
<path d="M106.252 7.42939C104.213 7.86797 101.255 10.5261 98.8378 14.0879C97.2847 16.3872 96.785 17.2377 95.475 19.9357C92.9495 25.1057 91.2479 29.7972 90.6401 33.2793C90.154 36.1235 91.1533 38.0905 93.3007 38.5424C94.2731 38.755 95.6236 38.4493 96.8255 37.7582C98.5137 36.788 100.823 34.1831 101.971 31.937C103.551 28.8669 103.497 25.7569 101.849 24.5874C101.323 24.2152 101.134 24.1621 100.458 24.1754C99.5536 24.1887 98.6893 24.5608 97.7439 25.3715C97.2307 25.8101 97.1767 25.9031 97.3657 25.9829C97.5278 26.0493 97.8519 25.9164 98.3246 25.6107C99.9317 24.5475 100.715 24.9196 100.715 26.7138C100.715 28.6941 99.297 32.3889 97.5008 35.1001C95.9477 37.4392 93.8814 38.3962 93.0036 37.1867C92.2068 36.0836 92.747 32.8673 94.5026 28.322C95.313 26.1955 95.0969 26.4082 98.9594 23.8564C102.457 21.5571 103.619 20.6534 105.374 18.9256C108.508 15.8422 110.182 12.6924 109.98 10.2603C109.872 8.9445 109.399 8.08062 108.521 7.62874C108.075 7.40281 106.873 7.29648 106.252 7.42939ZM108.089 8.18694C108.535 8.30656 108.859 8.98437 108.832 9.76851C108.791 11.4298 107.144 14.6594 105.037 17.2112C103.105 19.537 100.418 22.009 97.5413 24.1089C96.9471 24.5475 96.2988 25.0525 96.0963 25.2386C95.8802 25.4114 95.7181 25.531 95.7181 25.4778C95.7181 25.0127 97.6629 20.4806 98.7028 18.5136C99.4591 17.0783 101.903 13.2639 102.849 12.0279C103.713 10.8982 105.253 9.3565 106.05 8.83817C107.076 8.16036 107.495 8.02746 108.089 8.18694Z" fill="white"/>
<path d="M41.8458 22.6735C41.3596 22.9393 40.7519 23.3115 40.4953 23.4975C40.2252 23.6836 39.9821 23.8564 39.9551 23.883C39.9281 23.9095 39.9281 23.9494 39.9686 23.9893C40.0091 24.0292 40.3738 23.9361 40.7924 23.7766C41.6568 23.4577 42.17 23.5108 42.278 23.9494C42.413 24.4412 41.4137 27.0727 38.5911 33.5584C38.0509 34.7944 37.011 37.293 36.2817 39.1005C34.2154 44.244 33.4726 45.8521 33.135 45.9186C32.9864 45.9451 32.1221 45.9983 31.2307 46.0515C27.9625 46.1976 24.8157 47.0482 21.7906 48.6165C20.4806 49.281 18.7114 51.0487 18.0631 52.3113C17.6715 53.0821 17.5905 53.4011 17.5499 54.3181C17.5094 55.2485 17.5364 55.5143 17.793 56.0193C18.1712 56.7901 19.0895 57.5477 19.9809 57.8401C20.9398 58.1458 22.9385 58.1325 24.0865 57.8135C27.976 56.7104 31.933 53.0555 34.8096 47.8722C35.4038 46.7824 35.4173 46.7824 35.9576 46.7824C37.2676 46.7824 40.8464 47.3406 42.8452 47.8457C45.5733 48.5501 49.7464 50.0785 53.2172 51.6467C55.9183 52.8695 55.8102 52.7233 54.4867 53.5606C53.879 53.9593 53.1902 54.3846 52.9606 54.5042C52.731 54.6371 51.7857 55.2086 50.8673 55.7934C46.1945 58.7173 42.0754 60.671 39.1988 61.3222C38.5911 61.4551 37.6322 61.5348 36.4978 61.5348C34.7556 61.5348 34.3369 61.6943 35.6874 61.8538C38.1454 62.1329 38.1454 62.1329 41.6297 61.4551C41.8593 61.4152 42.1429 61.3222 42.2645 61.2557C42.386 61.1893 42.6021 61.1361 42.7372 61.1361C42.8722 61.1361 43.1423 61.0564 43.3449 60.9501C43.5475 60.8437 43.8851 60.7241 44.1147 60.671C44.3443 60.6178 44.5604 60.5248 44.6009 60.4583C44.6549 60.3919 44.8035 60.3387 44.9385 60.3387C45.6813 60.3387 51.5021 57.3218 53.9195 55.687C54.2166 55.4744 55.0944 54.9428 55.8507 54.4909C57.4444 53.5606 57.1878 53.5606 59.0515 54.4643C59.5782 54.7035 60.51 55.1156 61.1448 55.3681C62.7924 56.0459 63.2111 56.2187 63.4677 56.3516C63.6027 56.4313 63.8053 56.4845 63.9269 56.4845C64.0484 56.4845 64.305 56.5642 64.4941 56.6705C65.1423 56.9895 65.8716 57.2819 66.0742 57.2819C66.1687 57.2819 66.4253 57.3616 66.6414 57.468C68.0595 58.1724 71.4898 59.209 74.1098 59.7273C74.7445 59.847 75.5278 60.0064 75.8655 60.0862C78.526 60.6444 84.3332 60.6577 86.3995 60.0862C86.6561 60.0197 87.3584 59.8337 87.9526 59.6742C90.9643 58.8635 93.922 56.8832 95.2725 54.7966C97.825 50.8094 96.4069 46.5299 91.8557 44.5231C91.0318 44.1509 88.2363 43.3535 87.7501 43.3535C87.642 43.3402 87.1558 43.2737 86.6696 43.2073C85.2111 42.9681 81.1595 43.1408 79.0392 43.5263C77.5806 43.7921 75.3523 44.2971 74.3124 44.5895C73.6506 44.7889 72.9754 44.9749 72.8268 45.0148C71.4088 45.4002 65.3989 47.6463 64.5346 48.1115C64.413 48.1779 62.9005 48.9222 61.1583 49.7728L57.9981 51.3145L56.5665 50.7164C53.0417 49.2545 46.7212 47.3805 43.1828 46.7426C40.0091 46.1711 39.4959 46.0913 38.1184 46.0382C37.3756 45.9983 36.5788 45.9451 36.3492 45.9053L35.9305 45.8521L36.9299 43.6326C37.4836 42.4099 38.2129 40.722 38.5371 39.8714C38.8747 39.0341 39.1988 38.2367 39.2663 38.117C39.3474 37.9841 39.4014 37.8247 39.4014 37.7582C39.4014 37.6785 39.604 37.1601 39.8606 36.6019L40.3197 35.5786L40.4683 36.2963C40.6709 37.2665 41.022 37.7848 41.6838 38.117C42.386 38.4892 43.6015 38.5025 44.3578 38.1702C49.3007 35.9773 53.9195 27.3385 52.0828 23.7235C51.6101 22.8064 51.1374 22.5273 50.0705 22.5406C49.0576 22.5539 48.4634 22.8064 47.4235 23.6836C46.208 24.7203 43.9661 27.3119 43.4529 28.2821C43.1288 28.9068 43.1964 28.4549 43.534 27.6973C44.1552 26.3284 44.763 24.8 44.8575 24.3614C44.9925 23.7501 44.7224 22.9261 44.2498 22.5406C43.642 22.0356 42.9398 22.0755 41.8458 22.6735ZM49.5168 24.1754C50.1245 24.7734 49.9895 26.2354 49.1116 28.8802C47.572 33.5318 44.2092 38.0506 42.6696 37.519C41.2921 37.0405 40.7924 35.2862 41.4812 33.3458C41.5892 33.0135 41.7108 32.6281 41.7378 32.4819C41.8458 31.8307 43.7095 28.6941 44.7224 27.4448C45.6408 26.2885 47.491 24.6139 48.2068 24.2684C49.0441 23.8564 49.1792 23.8431 49.5168 24.1754ZM88.4929 44.3104C91.9097 45.0414 94.2191 46.4768 95.1779 48.4304C95.5561 49.2146 95.5966 49.4538 95.6101 50.5436C95.6371 53.0954 94.4487 55.1687 92.0987 56.737C90.4106 57.8534 87.9797 58.7306 85.9944 58.9299C83.577 59.1824 80.4572 59.0761 78.2289 58.6641C76.7703 58.3983 72.7998 57.3483 71.949 57.0161C71.6113 56.8832 70.7605 56.5509 70.0582 56.2984C68.7752 55.8332 67.9379 55.5143 67.4247 55.2883C67.2762 55.2219 66.0337 54.7168 64.6561 54.1586C61.9551 53.0555 60.0644 52.2049 60.0644 52.0986C60.0644 51.9923 62.9545 50.4506 65.669 49.1216C67.9244 48.0184 71.0846 46.7027 72.6917 46.1844C74.3664 45.6527 76.8378 44.9616 77.9588 44.7091C78.1073 44.6825 78.8366 44.5629 79.5794 44.4433C80.3222 44.3237 81.2406 44.1775 81.6052 44.1243C82.6586 43.9383 87.3989 44.0712 88.4929 44.3104ZM32.7838 46.9818C32.7838 47.128 31.7439 49.0418 30.8256 50.5702C29.3265 53.0821 27.0711 55.4744 25.2209 56.5243C23.3707 57.5743 20.8317 57.7604 19.8188 56.9231C18.6574 55.9661 18.7654 54.4112 20.1024 52.4309C22.0067 49.6399 25.3965 47.9387 30.6905 47.128C32.0005 46.9286 32.7838 46.8755 32.7838 46.9818Z" fill="white"/>
<path d="M60.6722 22.5938C58.2277 23.0855 55.3376 25.8898 53.636 29.4384C52.6636 31.4452 52.326 32.7743 52.3125 34.5552C52.299 36.0172 52.3125 36.1102 52.7041 36.8013C52.9877 37.3063 53.3253 37.6652 53.825 37.9841C54.4733 38.4094 54.6083 38.4493 55.5132 38.436C56.7557 38.4227 57.6875 38.0905 58.8625 37.2133C61.8606 34.9938 64.116 31.113 64.5347 27.4049C64.7102 25.8499 64.6157 25.0127 64.17 24.0956C63.5218 22.7799 62.3333 22.2748 60.6722 22.5938ZM61.9417 23.7766C62.9276 24.7468 62.5359 27.5113 60.8207 31.6313C59.8484 33.9571 58.0657 36.469 56.9042 37.1468C56.229 37.5323 55.4727 37.5854 55.1621 37.2399C54.3652 36.3627 54.5813 33.6515 55.6888 30.7275C56.8907 27.5644 58.984 24.4545 60.4021 23.7368C60.9558 23.4444 61.6311 23.471 61.9417 23.7766Z" fill="white"/>
<path d="M69.1803 22.5539C68.262 22.7533 65.8716 24.0557 65.8716 24.3481C65.8716 24.4411 65.9256 24.4411 66.0471 24.3481C66.3172 24.1222 67.6678 23.657 68.0459 23.657C68.4511 23.657 68.7077 23.883 68.7077 24.2418C68.7077 24.6937 67.8163 27.0727 65.642 32.4154C64.5075 35.233 63.5757 37.6253 63.5757 37.7582C63.5757 38.0639 63.7513 38.1037 64.9262 38.0373L65.9526 37.9841L66.2092 37.107C66.4658 36.2165 67.3571 34.1166 68.4376 31.8306C69.6935 29.1726 72.3811 25.8366 74.1638 24.6937C75.0146 24.1488 75.4603 24.069 75.7304 24.388C75.987 24.6804 75.8249 25.3582 75.2037 26.6607C74.8931 27.2853 74.65 27.8302 74.65 27.8568C74.65 27.8834 74.1503 28.9998 73.556 30.3288C72.165 33.4255 71.5573 35.0469 71.4492 36.0171C71.3547 37.0006 71.4492 37.3595 71.9624 37.9443C72.3271 38.3563 72.4621 38.4094 73.0158 38.4094C73.448 38.4094 73.8396 38.2898 74.3258 38.024C75.1226 37.5721 76.8108 35.8311 76.8108 35.4722C76.8108 35.326 76.7703 35.2197 76.7298 35.2197C76.6892 35.2197 76.2436 35.6051 75.7574 36.0703C75.2577 36.5355 74.7175 36.9475 74.5419 36.9873C74.1233 37.0804 73.8396 36.6551 73.9342 36.0304C74.0692 35.1267 75.2577 31.9768 76.4056 29.4384C76.5677 29.0662 76.8378 28.508 76.9864 28.1758C77.1349 27.8435 77.4861 27.086 77.7697 26.4879C78.4854 24.9329 78.661 24.0956 78.3774 23.5108C77.9047 22.514 76.5272 22.2748 75.1226 22.9393C73.8396 23.5241 70.7334 26.7803 69.8691 28.415C69.7476 28.6409 69.599 28.8536 69.5315 28.9067C69.4505 28.9466 69.7476 28.1891 70.1797 27.2189C70.6119 26.2487 71.0711 25.1323 71.2061 24.7468C71.4222 24.0557 71.4222 24.0026 71.1926 23.4975C70.7875 22.6071 70.1932 22.328 69.1803 22.5539Z" fill="white"/>
<path d="M32.7162 22.8463C31.4197 23.3115 30.7174 23.7899 29.2184 25.2253C26.5578 27.8036 24.7481 31.8572 24.8967 34.9672C24.9642 36.469 25.7475 37.7449 26.882 38.2101C27.1926 38.343 27.5842 38.5025 27.7463 38.5689C27.8949 38.6487 28.0839 38.6752 28.1515 38.6354C28.219 38.5955 28.6917 38.4892 29.1914 38.4094C30.2853 38.2367 31.3387 37.6917 32.6487 36.6285C35.5928 34.2362 37.6861 30.0763 37.6861 26.5809C37.6861 25.8898 37.6186 25.0658 37.5241 24.7601C37.3215 24.0424 36.6327 23.152 36.025 22.8463C35.3903 22.5007 33.6481 22.514 32.7162 22.8463ZM35.0391 24.0292C35.8899 25.0259 35.2687 28.508 33.6076 32.0832C32.3786 34.6881 30.3528 37.1335 29.1238 37.4658C28.327 37.6785 27.9894 37.5323 27.6383 36.7747C27.3006 36.0171 27.3141 34.9938 27.7058 33.1863C28.4756 29.7308 30.4068 26.1158 32.4596 24.3348C33.4725 23.4577 34.4584 23.338 35.0391 24.0292Z" fill="white"/>
<path d="M85.1975 22.9925C82.5775 24.1886 79.944 27.3916 78.661 30.9136C77.7967 33.3059 77.6886 35.2064 78.3369 36.5886C79.3228 38.7151 81.5782 39.1271 83.901 37.6386C86.8722 35.738 89.2626 32.0965 89.9649 28.4416C90.5321 25.5576 89.9244 23.4311 88.3848 22.7931C87.561 22.4609 86.2104 22.5406 85.1975 22.9925ZM87.5475 23.8697C88.6549 24.5874 87.9391 28.6542 85.9809 32.6812C84.9004 34.9273 83.8335 36.3361 82.6316 37.0937C79.2282 39.26 79.9845 31.6579 83.7255 26.1689C85.3056 23.8431 86.44 23.152 87.5475 23.8697Z" fill="white"/>
<path d="M33.7292 61.269C33.7292 61.3355 33.7968 61.4019 33.8778 61.4019C33.9453 61.4019 33.9723 61.3355 33.9318 61.269C33.8913 61.1893 33.8238 61.1361 33.7833 61.1361C33.7563 61.1361 33.7292 61.1893 33.7292 61.269Z" fill="white"/>
</g>
<defs>
<clipPath id="clip0_552_640">
<rect width="110" height="62" fill="white"/>
</clipPath>
</defs>
</svg>
