<svg width="86" height="48" viewBox="0 0 86 48" fill="none" xmlns="http://www.w3.org/2000/svg">
<g clip-path="url(#clip0_795_903)">
<path d="M51.0035 0.174913C50.8451 0.596778 50.2538 1.30675 49.4725 2.03729C47.9837 3.41607 46.3366 4.10546 43.1584 4.68167C41.8703 4.91832 38.6921 4.91832 36.4009 4.69195C34.3525 4.48617 32.188 4.23922 31.9135 4.18777C31.7973 4.15691 31.3961 4.10546 31.016 4.0643C30.6359 4.03343 29.9285 3.93054 29.4322 3.84822C28.9359 3.76591 28.3235 3.70417 28.0596 3.70417C27.7956 3.70417 27.4366 3.66302 27.2466 3.61157C27.0565 3.56012 26.4652 3.4881 25.9267 3.45723C25.3882 3.41607 24.7125 3.33376 24.4169 3.27202C23.6777 3.0971 17.0258 3.0971 16.2339 3.26173C15.9172 3.33376 15.3681 3.43665 15.0197 3.4881C14.4178 3.5807 13.6259 3.73504 13.0874 3.85851C12.9502 3.88938 12.8657 3.95112 12.8974 4.00257C12.9291 4.04372 12.8446 4.0643 12.7179 4.04372C12.5173 4.00257 10.9335 4.44501 10.2683 4.72282C9.2969 5.12411 7.26964 6.14276 6.72059 6.4926C4.32379 8.02572 2.41268 10.2688 1.61022 12.5016C1.25123 13.4791 1.12452 15.1974 1.34625 16.144C1.75804 17.9653 3.23625 19.344 5.21071 19.7762C6.55166 20.0643 8.35718 19.7659 9.79315 19.0148C10.3105 18.7473 11.3347 17.9653 11.7676 17.5022C12.834 16.3601 13.4464 14.8682 13.3936 13.5305L13.3831 13.2219L13.2458 13.4791C13.1719 13.6231 13.0452 13.9421 12.9713 14.1993C12.1794 16.8231 9.76148 18.9016 6.99512 19.344C5.88646 19.519 4.40826 19.1177 3.39463 18.3666C2.93005 18.0167 2.45491 17.2862 2.18039 16.4939C1.99033 15.9383 1.96921 15.6604 2.00089 14.7858C2.05368 13.6437 2.19094 13.1704 2.82446 11.8842C3.6058 10.2997 5.60138 8.40642 7.63919 7.30546C8.61059 6.7807 10.1521 6.14276 10.849 5.97813C11.0496 5.92668 11.5776 5.79292 12.0105 5.67974C12.4434 5.56655 13.0135 5.44308 13.2775 5.40192C13.5415 5.37105 13.9005 5.29903 14.0694 5.24758C14.2489 5.19613 14.7874 5.1344 15.2836 5.10353C15.7799 5.06237 16.8041 4.99035 17.5537 4.92861C18.7258 4.83601 19.5493 4.8463 20.8797 4.99035C21.0275 5.01093 21.5977 5.05208 22.1467 5.09324C22.6958 5.1344 23.5194 5.227 23.9839 5.30932C24.438 5.39163 24.9553 5.45337 25.1454 5.45337C25.4516 5.45337 25.4199 5.48424 24.8075 5.80321C23.8995 6.28681 23.4771 6.60578 22.6958 7.38777C21.6294 8.45787 20.9536 9.32218 20.1195 10.701C19.0108 12.5325 17.4376 15.6707 16.2339 18.4694C15.4737 20.2392 13.8899 23.7273 13.4042 24.6945C10.6484 30.1993 7.70255 32.6894 4.51384 32.2161C4.04926 32.1543 3.45798 32 3.18345 31.8868C2.52882 31.5987 1.92698 30.9711 1.71581 30.3434C1.49407 29.6952 1.49407 28.3267 1.72636 27.6579C1.82139 27.3801 1.87419 27.1228 1.84251 27.1022C1.70525 26.9685 0.902792 27.308 0.491005 27.6682C0.0369842 28.0592 0.0264256 28.0694 -0.00525028 28.8309C-0.068602 30.1067 0.216481 30.8167 1.1562 31.7016C2.04312 32.5248 3.64803 32.9878 5.29518 32.8952C8.46277 32.7202 11.5776 31.0019 13.7843 28.2135C15.6215 25.8881 16.7196 23.6862 18.9792 17.7492C19.1059 17.4096 19.2748 16.9878 19.3487 16.8231C19.4226 16.6482 19.8344 15.681 20.2462 14.6624C21.5343 11.555 22.5585 9.59999 23.6461 8.14919C24.3007 7.27459 24.7547 6.83215 25.5677 6.24565C26.2646 5.74147 26.3174 5.72089 26.9192 5.74147C27.2571 5.75176 27.6478 5.8135 27.7956 5.86495C27.9434 5.91639 28.3552 5.98842 28.7142 6.02958C29.0838 6.06044 29.4111 6.11189 29.4428 6.13247C29.5589 6.19421 31.734 6.4926 33.5501 6.6881C35.5351 6.90417 39.7585 6.91446 40.6771 6.70867C40.9728 6.63665 41.6591 6.4926 42.2187 6.37941C42.7783 6.26623 43.4435 6.09131 43.6969 5.98842C43.9609 5.87523 44.3304 5.75176 44.531 5.7106C44.7316 5.66945 44.9639 5.59742 45.059 5.55626C45.1434 5.51511 45.3863 5.41221 45.5869 5.3299C47.3713 4.57877 48.4588 3.90996 49.4197 2.97363C49.747 2.65466 50.0215 2.35626 50.0215 2.31511C50.0215 2.27395 50.1271 2.16077 50.2644 2.05787C50.4861 1.88295 51.0563 0.812855 51.2358 0.22636C51.3202 -0.041164 51.1091 -0.092611 51.0035 0.174913Z" fill="black"/>
<path d="M83.07 5.75171C81.4757 6.09126 79.1633 8.14914 77.2734 10.9067C76.0591 12.6868 75.6684 13.3453 74.6443 15.434C72.6698 19.4366 71.3394 23.0687 70.8643 25.7646C70.4842 27.9665 71.2655 29.4893 72.9443 29.8392C73.7045 30.0038 74.7604 29.7671 75.7001 29.2321C77.0199 28.481 78.8255 26.4642 79.723 24.7253C80.9583 22.3485 80.9161 19.9408 79.6279 19.0353C79.2161 18.7472 79.0683 18.706 78.5404 18.7163C77.833 18.7266 77.1572 19.0147 76.4181 19.6424C76.0169 19.9819 75.9746 20.054 76.1225 20.1157C76.2492 20.1671 76.5026 20.0642 76.8721 19.8276C78.1286 19.0044 78.741 19.2925 78.741 20.6816C78.741 22.2147 77.6323 25.0752 76.228 27.1742C75.0138 28.9851 73.3983 29.726 72.712 28.7896C72.0891 27.9356 72.5114 25.4456 73.884 21.9266C74.5175 20.2803 74.3486 20.445 77.3684 18.4694C80.1031 16.6893 81.0111 15.9896 82.3837 14.652C84.8333 12.2649 86.1426 9.82631 85.9842 7.94335C85.8997 6.9247 85.5302 6.25589 84.8439 5.90605C84.4955 5.73113 83.5557 5.64881 83.07 5.75171ZM84.506 6.3382C84.8544 6.43081 85.1079 6.95557 85.0867 7.56264C85.0551 8.84881 83.7669 11.3491 82.1198 13.3247C80.6099 15.1253 78.5087 17.0392 76.2597 18.6649C75.7951 19.0044 75.2883 19.3954 75.13 19.5395C74.961 19.6733 74.8343 19.7659 74.8343 19.7247C74.8343 19.3646 76.3548 15.8559 77.1678 14.3331C77.759 13.2218 79.6702 10.2687 80.4093 9.31184C81.085 8.43724 82.2887 7.24367 82.9117 6.84238C83.7141 6.31762 84.0414 6.21473 84.506 6.3382Z" fill="black"/>
<path d="M32.7159 17.5537C32.3358 17.7595 31.8606 18.0476 31.66 18.1916C31.4489 18.3357 31.2588 18.4694 31.2377 18.49C31.2166 18.5106 31.2166 18.5415 31.2482 18.5723C31.2799 18.6032 31.565 18.5312 31.8923 18.4077C32.5681 18.1608 32.9693 18.2019 33.0538 18.5415C33.1594 18.9222 32.378 20.9595 30.1713 25.9807C29.7489 26.9376 28.9359 28.872 28.3657 30.2714C26.7503 34.2534 26.1695 35.4984 25.9056 35.5498C25.7894 35.5704 25.1137 35.6116 24.4168 35.6527C21.8616 35.7659 19.4015 36.4244 17.0363 37.6386C16.0121 38.153 14.629 39.5215 14.1222 40.499C13.816 41.0958 13.7526 41.3427 13.7209 42.0527C13.6892 42.773 13.7104 42.9788 13.911 43.3698C14.2066 43.9665 14.9246 44.553 15.6215 44.7794C16.3711 45.0161 17.9338 45.0058 18.8313 44.7588C21.8722 43.9048 24.9659 41.0752 27.2148 37.0624C27.6794 36.2186 27.69 36.2186 28.1123 36.2186C29.1365 36.2186 31.9346 36.6508 33.4972 37.0418C35.6301 37.5871 38.8927 38.7704 41.6063 39.9845C43.718 40.9312 43.6335 40.818 42.5988 41.4662C42.1236 41.7749 41.5851 42.1042 41.4056 42.1968C41.2261 42.2997 40.487 42.7421 39.7691 43.1948C36.1158 45.4585 32.8954 46.971 30.6464 47.4752C30.1713 47.5781 29.4216 47.6399 28.5347 47.6399C27.1726 47.6399 26.8453 47.7633 27.9012 47.8868C29.8228 48.1029 29.8228 48.1029 32.547 47.5781C32.7265 47.5473 32.9482 47.4752 33.0432 47.4238C33.1382 47.3723 33.3072 47.3312 33.4128 47.3312C33.5183 47.3312 33.7295 47.2694 33.8879 47.1871C34.0463 47.1048 34.3102 47.0122 34.4897 46.971C34.6692 46.9299 34.8382 46.8579 34.8699 46.8064C34.9121 46.755 35.0282 46.7138 35.1338 46.7138C35.7145 46.7138 40.2653 44.3781 42.1553 43.1125C42.3876 42.9479 43.0739 42.5363 43.6652 42.1865C44.9111 41.4662 44.7105 41.4662 46.1676 42.1659C46.5794 42.3511 47.3079 42.6701 47.8042 42.8656C49.0923 43.3903 49.4196 43.5241 49.6203 43.627C49.7258 43.6887 49.8842 43.7299 49.9792 43.7299C50.0743 43.7299 50.2749 43.7916 50.4227 43.8739C50.9295 44.1209 51.4997 44.3473 51.6581 44.3473C51.732 44.3473 51.9326 44.409 52.1015 44.4913C53.2102 45.0366 55.8921 45.8392 57.9404 46.2405C58.4367 46.3331 59.0491 46.4566 59.3131 46.5183C61.3931 46.9505 65.9333 46.9608 67.5488 46.5183C67.7494 46.4669 68.2985 46.3228 68.763 46.1993C71.1176 45.5717 73.43 44.0386 74.4858 42.4231C76.4814 39.3363 75.3727 36.0231 71.8145 34.4694C71.1704 34.1813 68.9848 33.564 68.6047 33.564C68.5202 33.5537 68.1401 33.5022 67.76 33.4508C66.6196 33.2656 63.4521 33.3993 61.7943 33.6977C60.654 33.9035 58.9118 34.2945 58.0988 34.5209C57.5815 34.6752 57.0535 34.8193 56.9374 34.8501C55.8287 35.1485 51.1301 36.8874 50.4544 37.2476C50.3594 37.299 49.1768 37.8752 47.8147 38.5337L45.344 39.7273L44.2248 39.2643C41.469 38.1325 36.5276 36.6817 33.7612 36.1878C31.2799 35.7453 30.8787 35.6836 29.8017 35.6424C29.221 35.6116 28.598 35.5704 28.4185 35.5395L28.0912 35.4984L28.8726 33.78C29.3055 32.8334 29.8756 31.5267 30.129 30.8681C30.393 30.2199 30.6464 29.6026 30.6992 29.51C30.7625 29.4071 30.8048 29.2836 30.8048 29.2321C30.8048 29.1704 30.9632 28.7691 31.1638 28.337L31.5228 27.5447L31.6389 28.1003C31.7973 28.8514 32.0718 29.2527 32.5892 29.51C33.1382 29.7981 34.0885 29.8083 34.6798 29.5511C38.5443 27.8534 42.1553 21.1653 40.7193 18.3665C40.3498 17.6566 39.9802 17.4405 39.1461 17.4508C38.3542 17.4611 37.8896 17.6566 37.0766 18.3357C36.1263 19.1382 34.3736 21.1447 33.9724 21.8958C33.719 22.3794 33.7718 22.0296 34.0357 21.4431C34.5214 20.3833 34.9966 19.2 35.0705 18.8604C35.1761 18.3871 34.9649 17.7492 34.5953 17.4508C34.1202 17.0598 33.5711 17.0907 32.7159 17.5537ZM38.7132 18.7164C39.1883 19.1794 39.0827 20.3112 38.3964 22.3588C37.1927 25.9601 34.5637 29.4585 33.36 29.0469C32.283 28.6765 31.8923 27.3183 32.4308 25.8161C32.5153 25.5588 32.6103 25.2604 32.6314 25.1472C32.7159 24.6431 34.173 22.2148 34.9649 21.2476C35.6829 20.3524 37.1294 19.0559 37.689 18.7884C38.3436 18.4694 38.4492 18.4591 38.7132 18.7164ZM69.1854 34.3048C71.8567 34.8707 73.6622 35.982 74.4119 37.4945C74.7075 38.1016 74.7392 38.2868 74.7498 39.1305C74.7709 41.1061 73.8417 42.7112 72.0045 43.9254C70.6847 44.7897 68.7842 45.4688 67.232 45.6231C65.342 45.8186 62.903 45.7363 61.1608 45.4173C60.0205 45.2116 56.9163 44.3987 56.2511 44.1415C55.9871 44.0386 55.3219 43.7813 54.7729 43.5858C53.7698 43.2257 53.1152 42.9788 52.7139 42.8038C52.5978 42.7524 51.6264 42.3614 50.5494 41.9292C48.4377 41.0752 46.9595 40.4167 46.9595 40.3344C46.9595 40.2521 49.219 39.0585 51.3413 38.0296C53.1046 37.1755 55.5753 36.1569 56.8318 35.7556C58.1411 35.344 60.0733 34.809 60.9497 34.6135C61.0658 34.5929 61.636 34.5003 62.2167 34.4077C62.7974 34.3151 63.5154 34.2019 63.8005 34.1608C64.6241 34.0167 68.3301 34.1196 69.1854 34.3048ZM25.6311 36.373C25.6311 36.4862 24.818 37.9678 24.1001 39.1511C22.928 41.0958 21.1648 42.9479 19.7182 43.7608C18.2717 44.5736 16.2867 44.7177 15.4948 44.0694C14.5867 43.3286 14.6712 42.1247 15.7165 40.5916C17.2053 38.4309 19.8555 37.1138 23.9945 36.4862C25.0187 36.3318 25.6311 36.2907 25.6311 36.373Z" fill="black"/>
<path d="M47.4347 17.492C45.5236 17.8727 43.2641 20.0438 41.9337 22.791C41.1735 24.3447 40.9095 25.3737 40.8989 26.7524C40.8884 27.8843 40.8989 27.9563 41.2051 28.4914C41.4269 28.8823 41.6908 29.1602 42.0815 29.4071C42.5883 29.7364 42.6939 29.7672 43.4013 29.7569C44.3727 29.7467 45.1013 29.4894 46.0199 28.8103C48.3639 27.092 50.1272 24.0875 50.4545 21.2168C50.5917 20.0129 50.5178 19.3647 50.1694 18.6547C49.6626 17.636 48.7334 17.245 47.4347 17.492ZM48.4272 18.4078C49.198 19.1589 48.8918 21.2991 47.5509 24.4888C46.7906 26.2894 45.3969 28.2341 44.4889 28.7589C43.9609 29.0573 43.3696 29.0984 43.1268 28.8309C42.5038 28.1518 42.6728 26.0528 43.5386 23.7891C44.4783 21.3402 46.1149 18.9325 47.2235 18.3769C47.6565 18.1505 48.1844 18.1711 48.4272 18.4078Z" fill="black"/>
<path d="M54.0867 17.4611C53.3687 17.6154 51.4998 18.6238 51.4998 18.8502C51.4998 18.9222 51.542 18.9222 51.6371 18.8502C51.8482 18.6752 52.9041 18.3151 53.1997 18.3151C53.5165 18.3151 53.7171 18.49 53.7171 18.7678C53.7171 19.1177 53.0202 20.9595 51.3203 25.0958C50.4334 27.2772 49.7048 29.1293 49.7048 29.2321C49.7048 29.4688 49.8421 29.4997 50.7607 29.4482L51.5632 29.4071L51.7638 28.728C51.9644 28.0386 52.6612 26.4129 53.5059 24.6431C54.4879 22.5852 56.5891 20.0026 57.9828 19.1177C58.648 18.6958 58.9964 18.6341 59.2076 18.881C59.4082 19.1074 59.2815 19.6321 58.7958 20.6405C58.553 21.1241 58.3629 21.546 58.3629 21.5666C58.3629 21.5871 57.9722 22.4514 57.5077 23.4804C56.4201 25.8778 55.945 27.1331 55.8605 27.8842C55.7866 28.6457 55.8605 28.9235 56.2617 29.3762C56.5468 29.6952 56.6524 29.7363 57.0853 29.7363C57.4232 29.7363 57.7294 29.6437 58.1095 29.4379C58.7325 29.0881 60.0523 27.7402 60.0523 27.4624C60.0523 27.3492 60.0206 27.2669 59.9889 27.2669C59.9573 27.2669 59.6088 27.5653 59.2287 27.9254C58.838 28.2855 58.4157 28.6045 58.2784 28.6354C57.9511 28.7074 57.7294 28.3781 57.8033 27.8945C57.9089 27.1948 58.838 24.7563 59.7355 22.791C59.8622 22.5029 60.0734 22.0707 60.1895 21.8135C60.3057 21.5563 60.5802 20.9698 60.8019 20.5067C61.3616 19.3029 61.4988 18.6547 61.2771 18.2019C60.9075 17.4302 59.8306 17.245 58.7325 17.7595C57.7294 18.2122 55.3009 20.7331 54.6252 21.9987C54.5301 22.1736 54.414 22.3383 54.3612 22.3794C54.2978 22.4103 54.5301 21.8238 54.868 21.0727C55.2059 20.3215 55.5649 19.4572 55.6705 19.1588C55.8394 18.6238 55.8394 18.5826 55.6599 18.1916C55.3431 17.5022 54.8786 17.2862 54.0867 17.4611Z" fill="black"/>
<path d="M25.5784 17.6874C24.5647 18.0476 24.0157 18.418 22.8437 19.5292C20.7636 21.5254 19.3488 24.6636 19.4649 27.0714C19.5177 28.2341 20.1301 29.2218 21.017 29.582C21.2599 29.6849 21.5661 29.8083 21.6928 29.8598C21.8089 29.9215 21.9567 29.9421 22.0095 29.9112C22.0623 29.8804 22.4319 29.798 22.8226 29.7363C23.6778 29.6026 24.5014 29.1807 25.5256 28.3575C27.8273 26.5054 29.4639 23.2849 29.4639 20.5788C29.4639 20.0437 29.4111 19.4058 29.3372 19.1691C29.1788 18.6135 28.6404 17.9241 28.1652 17.6874C27.669 17.4199 26.3069 17.4302 25.5784 17.6874ZM27.3944 18.6032C28.0596 19.3749 27.5739 22.0707 26.2752 24.8386C25.3144 26.8553 23.7306 28.7485 22.7698 29.0058C22.1468 29.1704 21.8828 29.0572 21.6083 28.4707C21.3443 27.8842 21.3549 27.0919 21.6611 25.6926C22.2629 23.0173 23.7728 20.2186 25.3777 18.8399C26.1696 18.1608 26.9404 18.0681 27.3944 18.6032Z" fill="black"/>
<path d="M66.609 17.8007C64.5607 18.7267 62.5017 21.2065 61.4986 23.9332C60.8229 25.7852 60.7384 27.2566 61.2452 28.3267C62.016 29.973 63.7793 30.292 65.5954 29.1396C67.9183 27.6682 69.7872 24.8489 70.3362 22.0193C70.7797 19.7865 70.3045 18.1402 69.1009 17.6463C68.4568 17.3891 67.4009 17.4508 66.609 17.8007ZM68.4462 18.4798C69.312 19.0354 68.7524 22.184 67.2214 25.3016C66.3767 27.0406 65.5426 28.1312 64.6029 28.7177C61.9421 30.3949 62.5334 24.5094 65.4581 20.2598C66.6935 18.4592 67.5804 17.9242 68.4462 18.4798Z" fill="black"/>
<path d="M26.3701 47.4341C26.3701 47.4855 26.4229 47.537 26.4863 47.537C26.5391 47.537 26.5602 47.4855 26.5285 47.4341C26.4968 47.3724 26.444 47.3312 26.4124 47.3312C26.3912 47.3312 26.3701 47.3724 26.3701 47.4341Z" fill="black"/>
</g>
<defs>
<clipPath id="clip0_795_903">
<rect width="86" height="48" fill="white"/>
</clipPath>
</defs>
</svg>
